<?xml version="1.0" encoding="UTF-8" standalone="no"?>
<!-- Created with Inkscape (http://www.inkscape.org/) -->

<svg
   version="1.1"
   id="svg1"
   width="1286.4"
   height="1769.6"
   viewBox="0 0 1286.4 1769.6"
   sodipodi:docname="treinosporticonebranco.svg"
   inkscape:version="1.3 (0e150ed6c4, 2023-07-21)"
   xmlns:inkscape="http://www.inkscape.org/namespaces/inkscape"
   xmlns:sodipodi="http://sodipodi.sourceforge.net/DTD/sodipodi-0.dtd"
   xmlns="http://www.w3.org/2000/svg"
   xmlns:svg="http://www.w3.org/2000/svg">
  <defs
     id="defs1" />
  <sodipodi:namedview
     id="namedview1"
     pagecolor="#505050"
     bordercolor="#eeeeee"
     borderopacity="1"
     inkscape:showpageshadow="0"
     inkscape:pageopacity="0"
     inkscape:pagecheckerboard="0"
     inkscape:deskcolor="#505050"
     showgrid="false"
     inkscape:zoom="0.32486314"
     inkscape:cx="1122.0109"
     inkscape:cy="943.47423"
     inkscape:window-width="1536"
     inkscape:window-height="793"
     inkscape:window-x="-8"
     inkscape:window-y="-8"
     inkscape:window-maximized="1"
     inkscape:current-layer="g1" />
  <g
     inkscape:groupmode="layer"
     inkscape:label="Image"
     id="g1">
    <path
       style="fill:#1a1a1a;stroke-width:1.58555"
       d="M 66.520984,782.91336 66.160452,692.95105 37.31276,692.46232 8.4651025,691.97358 v -9.90891 -9.90889 H 74.501918 140.53877 v 9.94558 9.9456 H 113.4289 86.319036 v 90.41435 90.41431 h -9.718752 -9.718768 z"
       id="path1" />
    <path
       style="fill:#1a1a1a;stroke-width:1.58555"
       d="m 155.83151,800.54415 v -72.33148 h 8.34149 8.3415 v 11.75389 c 0,6.46461 0.46919,11.7487 1.04269,11.74243 1.04911,-0.013 5.61585,-9.02073 7.55627,-14.90697 0.57375,-1.74046 1.68898,-3.16446 2.47822,-3.16446 0.78928,0 1.43506,-1.09063 1.43506,-2.42366 0,-1.44018 3.07371,-3.3827 7.57544,-4.78737 6.17401,-1.92648 9.11642,-1.93842 15.9053,-0.0646 4.58141,1.26461 8.6446,3.36616 9.0293,4.67013 1.18897,4.02997 -3.50084,22.72865 -5.24851,20.92631 -2.70672,-2.79136 -14.13004,-4.05379 -20.31785,-2.24544 -6.10401,1.78389 -12.35541,9.19027 -12.45469,14.75584 -0.0275,1.54154 -0.63931,3.57587 -1.3596,4.52067 -2.72177,3.57026 -4.23072,26.54011 -4.24089,64.55585 l -0.0115,39.33025 h -9.03661 -9.03663 z"
       id="path2" />
    <path
       style="fill:#1a1a1a;stroke-width:1.58555"
       d="m 270.52707,875.21852 c -1.52929,-0.46978 -5.90856,-2.73419 -9.73174,-5.03169 -3.8232,-2.29777 -9.00901,-5.27727 -11.52403,-6.62133 -2.66769,-1.42568 -4.90249,-4.13881 -5.36416,-6.51246 -0.43522,-2.23766 -1.43658,-4.06849 -2.2252,-4.06849 -1.95062,0 -5.11749,-5.6639 -5.17176,-9.24974 -0.0244,-1.60627 -1.32066,-5.03134 -2.88079,-7.61108 -8.01498,-13.25326 -7.9163,-57.41485 0.1534,-68.68129 1.4757,-2.0603 2.68309,-5.25883 2.68309,-7.10791 0,-1.84906 1.47709,-5.15398 3.28244,-7.34427 1.80531,-2.19024 3.7243,-5.81319 4.26441,-8.05093 0.5401,-2.23774 1.5208,-4.06863 2.17929,-4.06863 0.6585,0 2.28284,-1.41199 3.60967,-3.1378 4.70935,-6.12545 23.47093,-13.07656 35.3229,-13.08708 7.92988,-0.005 18.0154,2.9618 26.41476,7.7756 5.43463,3.11468 11.46625,10.03181 16.68299,19.13228 4.67014,8.14691 9.73173,30.98839 9.73173,43.91636 v 10.49895 h -45.97189 c -43.12692,0 -45.92789,0.19565 -45.26061,3.16449 0.3912,1.74049 1.36999,7.98024 2.17504,13.8661 0.80508,5.88586 2.54378,12.25381 3.86378,14.15102 10.54878,15.16127 12.50992,17.06965 20.83157,20.27114 10.10449,3.88748 21.00315,3.10369 28.75345,-2.06812 5.50571,-3.67386 16.14519,-19.21198 16.14519,-23.5787 0,-2.22078 1.55755,-2.58635 8.31224,-1.95084 4.57171,0.43013 8.61988,1.18222 8.99592,1.67132 0.37601,0.48908 -0.39284,5.30446 -1.70856,10.70088 -2.66916,10.94731 -7.824,18.31456 -16.29472,23.28823 -3.05855,1.79597 -8.49833,5.00717 -12.08841,7.13655 -5.29568,3.14053 -8.96846,3.83133 -19.4635,3.66129 -7.11483,-0.11381 -14.18728,-0.59407 -15.71656,-1.06385 z m 48.83986,-91.40103 c -0.46108,-2.23775 -0.84684,-6.69554 -0.85726,-9.90625 -0.015,-4.64756 -1.57551,-7.86216 -7.654,-15.76845 -10.22176,-13.29532 -14.68498,-16.09795 -25.73099,-16.15762 -17.71393,-0.0956 -34.63139,17.13567 -36.63188,37.31163 l -0.85166,8.58935 h 36.28204 36.28203 z"
       id="path3" />
    <path
       style="fill:#1a1a1a;stroke-width:1.58555"
       d="m 367.1494,800.54415 v -72.33148 h 9.73174 9.73175 v 72.33148 72.33147 h -9.73175 -9.73174 z"
       id="path4" />
    <path
       style="fill:#1a1a1a;stroke-width:1.58555"
       d="m 367.1494,684.81382 v -12.65804 h 9.73174 9.73175 v 12.65804 12.65797 h -9.73175 -9.73174 z"
       id="path5" />
    <path
       style="fill:#1a1a1a;stroke-width:1.58555"
       d="m 421.36911,800.54415 v -72.33148 h 6.95125 6.95125 v 9.83887 c 0,11.50893 1.80805,13.9563 5.6352,7.62795 12.79761,-21.16172 38.50031,-26.93387 60.56547,-13.60151 7.61056,4.59853 9.4109,7.66432 12.1353,20.66521 1.90079,9.07056 2.29848,20.41231 2.29848,65.55039 v 54.58204 h -8.3415 -8.3415 v -53.98117 c 0,-52.99303 -0.0573,-54.0913 -3.12805,-59.99533 -4.2471,-8.16558 -15.46287,-16.0851 -22.88695,-16.16058 -10.15893,-0.10339 -20.66527,6.31212 -26.75933,16.33986 -7.47334,12.29742 -8.39663,20.04803 -8.39663,70.48735 v 43.30987 h -8.34149 -8.3415 z"
       id="path6" />
    <path
       style="fill:#1a1a1a;stroke-width:1.58555"
       d="m 599.91346,877.18858 c -0.70816,-0.2309 -4.85916,-0.94321 -9.2244,-1.58306 -4.93183,-0.72283 -9.82412,-2.82923 -12.92153,-5.56319 -2.7416,-2.41991 -6.06323,-4.39988 -7.38141,-4.39988 -3.52678,0 -16.05123,-14.05935 -17.47757,-19.61961 -0.67614,-2.63578 -1.84883,-5.81138 -2.60597,-7.05698 -4.62175,-7.60357 -6.54252,-44.27738 -3.24351,-61.92944 3.33459,-17.84234 7.53051,-26.59114 17.98117,-37.4919 15.32809,-15.98826 40.89493,-19.25398 62.78087,-8.01914 6.18784,3.17639 22.17401,23.16201 23.68641,29.61224 0.53451,2.27973 1.99266,5.65441 3.24034,7.4993 1.88872,2.79278 2.26174,7.93926 2.22805,30.74086 -0.0389,26.27825 -0.20252,27.84759 -4.04455,38.7796 -4.25988,12.12094 -15.61467,27.48507 -20.31269,27.48507 -1.40144,0 -2.89854,0.73756 -3.32687,1.63903 -1.7321,3.64516 -24.76351,11.41213 -29.37834,9.9071 z m 15.1066,-20.39265 c 0.84704,-1.10178 2.87424,-2.00324 4.50494,-2.00324 3.68098,0 10.11562,-10.13671 15.0546,-23.71617 3.31576,-9.11651 3.6684,-12.12693 3.6684,-31.31721 0,-21.04984 -0.0432,-21.33136 -5.04928,-32.97502 -2.77714,-6.45915 -6.06158,-12.22808 -7.29883,-12.81992 -1.23722,-0.59182 -2.56407,-1.54221 -2.94853,-2.11206 -3.03323,-4.49567 -13.7935,-9.55956 -20.75546,-9.76775 -10.96499,-0.32787 -25.36877,8.70765 -29.27398,18.36357 -7.81227,19.31644 -7.66201,18.52726 -7.66201,40.24108 0,20.8652 0.0199,20.99063 5.5351,34.93538 3.04433,7.69726 6.41457,14.95557 7.48947,16.12947 1.07486,1.17409 5.46581,3.54132 9.75761,5.26054 8.5035,3.40651 24.2892,3.27852 26.97797,-0.21867 z"
       id="path7" />
    <path
       style="fill:#666666;stroke-width:0.769555"
       d=""
       id="path8" />
    <path
       style="fill:#1a1a1a;stroke-width:1.58555"
       d="m 991.53044,1147.7063 c -2.5886,-2.9676 -6.10936,-5.3957 -7.82366,-5.3957 -1.7144,0 -3.89583,-1.2208 -4.84766,-2.7127 -0.95199,-1.4918 -2.82879,-2.7124 -4.17077,-2.7124 -1.34215,0 -3.29871,-1.3465 -4.3482,-2.9925 -1.04935,-1.6458 -3.94124,-4.0979 -6.42628,-5.4493 -2.48508,-1.3507 -4.51831,-3.171 -4.51831,-4.0441 0,-0.8731 -2.57628,-2.9287 -5.72508,-4.5671 -3.14876,-1.6387 -7.68445,-4.8754 -10.07928,-7.1923 -2.39486,-2.3168 -7.48231,-6.2189 -11.3055,-8.6708 -3.82316,-2.4522 -8.20246,-5.3588 -9.73174,-6.4594 -1.52926,-1.1005 -5.43937,-3.4263 -8.68906,-5.1684 -3.2497,-1.7422 -5.90857,-3.8247 -5.90857,-4.6279 0,-0.8033 -1.22011,-1.4604 -2.7114,-1.4604 -1.49128,0 -3.21171,-1.1145 -3.82318,-2.477 -0.61147,-1.3625 -3.92704,-4.3052 -7.36789,-6.5397 -3.44086,-2.2343 -7.19456,-5.079 -8.34152,-6.3215 -1.14694,-1.2423 -3.65959,-2.7429 -5.58368,-3.3343 -1.92406,-0.5912 -6.88556,-4.3624 -11.02552,-8.3799 -4.13994,-4.0178 -8.62851,-7.305 -9.97456,-7.305 -1.34603,0 -2.78408,-0.7084 -3.1956,-1.5747 -0.41154,-0.8659 -2.4817,-2.03 -4.60037,-2.5868 -2.11865,-0.5567 -5.72895,-3.3225 -8.02287,-6.1464 -2.29389,-2.8236 -6.87647,-7.5087 -10.18345,-10.4108 -3.30699,-2.9024 -6.80543,-6.7487 -7.77428,-8.5481 -0.96888,-1.7991 -3.89365,-4.2012 -6.49952,-5.3374 -2.60589,-1.1368 -6.42312,-4.3943 -8.48279,-7.2387 -4.89304,-6.7584 -10.61874,-6.7746 -18.24866,-0.052 -3.19634,2.8161 -6.88769,5.6292 -8.203,6.2514 -3.27676,1.5502 -4.50553,9.2262 -3.01985,18.8657 1.10851,7.192 1.98445,8.5807 8.22683,13.0432 3.84243,2.747 9.2156,5.9512 11.9404,7.1208 2.72477,1.1696 7.07185,4.159 9.66014,6.6427 2.58831,2.4837 7.09312,5.3521 10.01072,6.374 2.91757,1.0219 8.43569,4.259 12.26247,7.1938 3.82676,2.935 7.28769,5.3359 7.69101,5.3359 0.40328,0 1.67071,1.2195 2.81651,2.7099 1.14582,1.4903 3.75998,3.242 5.80925,3.8926 3.77573,1.1987 14.43891,7.016 24.57972,13.4095 3.05854,1.9284 6.76009,3.5037 8.22564,3.501 1.46554,0 2.35914,0.3923 1.98572,0.878 -1.40586,1.8285 -44.09652,-2.801 -50.64457,-5.4922 -3.7594,-1.5453 -9.96333,-3.5155 -13.78653,-4.3791 -3.82319,-0.863 -11.01771,-2.9108 -15.98785,-4.5505 -4.97015,-1.6393 -11.34162,-3.4129 -14.15887,-3.9412 -2.81721,-0.528 -6.19865,-2.5071 -7.51426,-4.398 -1.31564,-1.8911 -3.57123,-3.4382 -5.01247,-3.4382 -2.68912,0 -13.77645,-6.6726 -15.02187,-9.0406 -0.38232,-0.7267 -2.23162,-1.9462 -4.10951,-2.7095 -1.87789,-0.7633 -5.68759,-4.3312 -8.46591,-7.9289 -2.7784,-3.5975 -6.30549,-7.7618 -7.83804,-9.2534 -4.87253,-4.7432 -11.56228,-18.4414 -11.56228,-23.6759 0,-7.9493 5.53073,-18.5855 19.81105,-38.09831 1.33812,-1.82838 2.43294,-3.73524 2.43294,-4.23728 0,-1.30334 13.12179,-17.45304 17.32498,-21.32288 4.54446,-4.18438 4.54192,-8.3232 -0.0299,-48.58932 -1.95736,-17.23872 -3.67778,-36.95316 -3.8232,-43.81004 -0.24956,-11.76818 -0.0552,-12.62954 3.47074,-15.37028 4.05024,-3.14849 13.643,-17.49877 13.643,-20.40912 0,-2.27236 8.2281,-13.82722 11.52208,-16.18065 2.82319,-2.01701 7.94142,-0.48541 7.94142,2.37639 0,1.04489 1.87684,4.68015 4.17076,8.07837 2.29391,3.3982 4.17073,7.77771 4.17073,9.73222 0,1.95453 0.52711,3.55362 1.17132,3.55362 0.64424,0 2.35053,2.8481 3.79178,6.32904 1.44126,3.48095 3.13572,6.32902 3.76547,6.32902 0.62978,0 2.06089,2.64453 3.18022,5.87694 1.11935,3.23229 2.58171,7.09752 3.24969,8.58928 8.88799,19.85008 15.99372,48.67959 17.46471,70.85818 0.51899,7.82524 1.91439,14.52194 3.95633,18.98711 4.60321,10.06599 23.20063,35.84225 37.59356,52.10531 10.35419,11.6993 10.94663,12.4348 19.66873,24.4165 4.58783,6.3024 11.55093,14.1313 15.47356,17.3976 4.38033,3.6478 7.46581,7.6689 7.99715,10.4224 0.4758,2.466 1.97953,4.9434 3.34156,5.5059 1.36205,0.5622 5.36856,4.8885 8.90333,9.6139 10.53153,14.0792 11.74599,15.5867 17.11511,21.2497 2.82887,2.9836 9.4361,10.7141 14.68275,17.1787 5.24663,6.4647 10.5336,12.9745 11.74905,14.4665 1.21531,1.4918 3.91155,5.1533 5.9916,8.137 2.08005,2.9838 5.64518,7.2108 7.92261,9.3932 3.55323,3.4054 3.74623,3.9783 1.36028,4.04 -1.52932,0.039 -4.89861,-2.3569 -7.48722,-5.3246 z"
       id="path9" />
    <path
       style="fill:#1a1a1a;stroke-width:1.58555"
       d="m 693.85797,974.89077 c -6.88883,-3.17689 -19.51152,-7.81084 -23.96063,-8.79619 -2.85572,-0.63232 -7.21803,-3.55658 -9.69403,-6.49802 -2.47596,-2.94145 -5.50629,-5.3482 -6.73407,-5.3482 -5.36334,0 -24.00469,-21.30742 -29.66287,-33.90527 -1.72198,-3.83393 2.82022,-2.56758 7.03616,1.96166 8.21945,8.83018 27.7628,19.31198 35.9751,19.29457 2.33212,0 4.83456,0.71252 5.56099,1.59424 1.80343,2.18895 18.06098,5.63006 26.5992,5.63006 7.23187,0 15.73387,-2.91307 15.73387,-5.39075 0,-0.78153 1.19147,-1.82582 2.64771,-2.32117 4.56949,-1.55427 6.3091,-18.27309 4.55997,-43.82422 -1.72898,-25.25723 -1.19369,-30.75506 3.65322,-37.522 6.06241,-8.46389 13.46741,-6.76321 24.1256,5.54113 8.62943,9.96223 13.18001,37.96311 9.50138,58.46425 -3.02171,16.8401 -13.00846,41.3274 -16.85472,41.3274 -0.67762,0 -4.51346,2.15797 -8.52405,4.79563 -6.3234,4.15858 -9.32329,4.87282 -22.58474,5.37701 -8.41099,0.31992 -16.23115,0.14828 -17.37809,-0.38013 z"
       id="path10" />
    <path
       style="fill:#1a1a1a;stroke-width:1.58555"
       d="m 725.8337,822.24976 c -2.67623,-1.8902 -6.12261,-4.33347 -7.65858,-5.42949 -4.03562,-2.87975 -8.12396,-16.88904 -7.28793,-24.97313 1.35062,-13.06037 5.28574,-20.61455 13.55626,-26.02375 10.1273,-6.62357 17.77967,-6.65684 27.94327,-0.12149 7.34031,4.7199 7.91634,5.58152 10.09184,15.0956 2.24863,9.83384 1.92846,20.50829 -0.67796,22.60351 -0.66586,0.5353 -1.21068,2.94863 -1.21068,5.36296 0,3.16573 -1.25986,5.17986 -4.51829,7.2234 -2.48509,1.55854 -6.70795,4.41622 -9.38419,6.35044 -6.10488,4.41229 -14.53236,4.37674 -20.85374,-0.0879 z"
       id="path11" />
    <path
       style="fill:#1a1a1a;stroke-width:1.58555"
       d="m 783.55201,771.65995 c -0.4599,-0.96795 -2.9677,-3.07547 -5.57285,-4.68344 -6.48354,-4.00174 -9.66492,-16.25323 -8.7132,-33.55443 0.37487,-6.81437 1.31913,-13.41878 2.09834,-14.67646 0.77925,-1.25773 1.88227,-5.11328 2.45116,-8.56789 0.56891,-3.4546 2.49303,-9.28652 4.27581,-12.95979 1.78279,-3.67337 3.68585,-8.98186 4.22901,-11.79668 0.84547,-4.38155 6.49368,-12.78123 13.24534,-19.69761 1.02624,-1.05132 3.47944,-4.40685 5.45159,-7.45685 2.6852,-4.15275 5.84965,-6.28388 12.60107,-8.48616 11.52346,-3.75901 15.54522,-3.69201 32.30668,0.53788 12.64305,3.19064 14.19746,4.05431 19.5161,10.84373 3.17843,4.05737 6.42443,7.37698 7.21339,7.37698 0.78896,0 2.7378,1.8309 4.33073,4.06863 4.81159,6.75931 9.7411,12.20596 11.04709,12.20596 2.20417,0 10.62625,14.1685 15.07804,25.36589 2.65454,6.67686 1.18393,6.86108 -4.08096,0.51122 -3.97236,-4.79095 -12.91841,-11.4526 -29.30488,-21.82185 -10.05984,-6.36579 -26.82486,-10.81685 -35.617,-9.45613 -13.84335,2.14246 -22.54998,15.25962 -24.7881,37.34503 -0.78965,7.79193 -2.40963,19.45638 -3.59993,25.92101 -1.19033,6.46462 -2.49969,13.82717 -2.90972,16.36129 -1.30561,8.06951 -16.64384,18.12072 -19.25771,12.61967 z"
       id="path12" />
    <path
       style="fill:#1a1a1a;stroke-width:1.58555"
       d="M 882.93185,829.47673 V 728.21267 h 8.34151 8.34147 v 9.04147 c 0,4.97276 0.56821,9.04142 1.26267,9.04142 0.69445,0 4.15118,-3.65144 7.68158,-8.11429 3.53042,-4.46294 8.12351,-8.59886 10.2069,-9.19098 2.08339,-0.59214 5.60177,-1.82306 7.81862,-2.73541 8.21949,-3.38266 28.01617,-0.3878 32.92044,4.98025 1.20717,1.32132 2.89277,2.40243 3.74581,2.40243 2.10783,0 11.17534,10.97553 13.54925,16.40031 10.45941,23.90182 11.09557,26.74549 11.09557,49.60216 0,21.39389 -0.0745,21.90313 -5.29272,36.16569 -5.80806,15.87462 -15.0973,29.83673 -19.851,29.83673 -1.65874,0 -3.7663,1.17604 -4.68339,2.61334 -3.95718,6.20185 -20.57467,10.21378 -30.64872,7.39962 -5.12386,-1.43128 -17.48736,-9.33718 -20.6055,-13.17609 -1.01039,-1.24393 -2.41803,-2.26177 -3.12803,-2.26177 -0.75032,0 -1.29099,14.76769 -1.29099,35.26153 v 35.26153 h -9.73172 -9.73175 z m 63.92504,27.29947 c 7.8953,-3.61657 10.19397,-6.36064 13.40084,-15.99767 1.0756,-3.23232 2.4872,-5.87694 3.13692,-5.87694 0.6497,0 2.32205,-4.67895 3.71633,-10.39763 4.59646,-18.85325 2.59727,-51.38864 -3.58636,-58.36427 -1.40399,-1.58385 -2.93685,-4.87042 -3.40634,-7.3035 -0.53357,-2.76514 -3.86801,-6.96245 -8.8933,-11.19466 -9.74091,-8.2036 -18.96783,-9.1989 -27.58606,-2.97569 -11.57104,8.35547 -13.80202,10.76618 -15.65824,16.91946 -1.06346,3.52535 -2.35995,6.40968 -2.88113,6.40968 -1.97098,0 -5.48439,21.53612 -5.47696,33.57193 0.01,14.348 1.56571,23.11412 6.43969,36.26081 4.30006,11.59848 8.07748,16.94684 12.02753,17.02905 1.69066,0.0353 4.63792,1.22709 6.54953,2.64836 4.84757,3.60439 13.36743,3.32483 22.21755,-0.72893 z"
       id="path13" />
    <path
       style="fill:#1a1a1a;stroke-width:1.58555"
       d="m 1058.1032,876.52058 c -9.7678,-1.72477 -29.3622,-12.34507 -34.5346,-18.71805 -2.5541,-3.1472 -6.5807,-10.60464 -8.9475,-16.57192 -4.2836,-10.79934 -4.3036,-10.98406 -4.3081,-39.78234 0,-26.57191 0.2532,-29.57792 3.1553,-36.84228 7.0576,-17.66527 15.0281,-28.60166 23.7812,-32.62974 15.8736,-7.30499 29.6841,-9.24952 40.1558,-5.65405 2.765,0.94934 6.6693,2.15978 8.676,2.68994 2.0069,0.53015 7.9502,4.69026 13.2074,9.2447 7.2779,6.30499 10.1667,10.08573 12.1074,15.84499 1.4016,4.16028 3.7677,10.56907 5.2575,14.24174 6.3999,15.77548 5.6121,48.56953 -1.7038,70.93471 -4.7877,14.63637 -8.1891,20.02038 -15.1182,23.93043 -2.6877,1.51669 -6.4508,3.79888 -8.3624,5.07161 -9.9311,6.61205 -23.5455,9.97405 -33.366,8.24026 z m 19.6514,-19.32112 c 4.1021,-1.65983 8.9347,-4.71135 10.7389,-6.78107 4.786,-5.49023 11.1556,-24.7783 12.6179,-38.20917 1.8074,-16.59985 -1.1907,-41.67713 -5.3857,-45.04944 -0.8119,-0.65257 -1.476,-2.63984 -1.476,-4.4161 0,-4.18658 -2.9754,-7.53537 -13.2074,-14.86454 -10.8198,-7.75033 -21.1498,-8.28792 -30.5747,-1.59123 -3.4468,2.44905 -6.267,5.08011 -6.267,5.8468 0,0.76669 -0.7375,1.39399 -1.6389,1.39399 -2.75,0 -11.0998,13.12233 -13.2323,20.79528 -3.483,12.53279 -3.9294,32.08394 -1.0733,47.00236 2.1821,11.39786 3.5734,14.72991 9.7624,23.3794 3.9696,5.54777 8.1107,10.08695 9.2023,10.08695 1.0917,0 2.5792,0.73474 3.3055,1.63282 3.5447,4.38192 17.3427,4.77418 27.2283,0.77395 z"
       id="path14" />
    <path
       style="fill:#1a1a1a;stroke-width:1.58555"
       d="m 1148.4693,800.54415 v -72.33148 h 8.3416 8.3416 v 11.75389 c 0,11.58692 1.7018,15.40613 3.5288,7.91896 0.5146,-2.10917 2.7917,-7.25965 5.06,-11.44553 5.4618,-10.07872 14.0439,-13.38196 26.1125,-10.05073 11.69,3.22673 12.2478,3.92335 9.3881,11.72346 -1.3101,3.5735 -2.3822,7.9615 -2.3822,9.75108 0,4.6692 -1.51,5.97837 -3.9089,3.38884 -4.4256,-4.77737 -28.0667,-0.93262 -28.0667,4.56455 0,0.7731 -1.6969,4.74082 -3.7708,8.81712 l -3.771,7.41152 -0.5691,50.4149 -0.5694,50.41489 h -8.8672 -8.8673 z"
       id="path15" />
    <path
       style="fill:#1a1a1a;stroke-width:1.58555"
       d="m 1252.2085,874.37011 c -7.7186,-1.43599 -17.1292,-9.16073 -19.3516,-15.88474 -0.9429,-2.853 -1.7255,-25.34747 -2.0631,-59.29743 l -0.5438,-54.70066 h -6.8293 -6.8291 v -8.1373 -8.13731 h 6.9513 6.9512 v -18.69609 -18.69605 l 5.5452,-3.45546 c 3.0497,-1.90043 5.5522,-3.98609 5.5608,-4.63473 0.016,-0.64863 1.8928,-2.0303 4.1869,-3.07042 l 4.1706,-1.89112 v 25.22196 25.22191 h 10.427 10.4267 v 8.05809 8.05807 l -10.0794,0.53129 -10.0792,0.53126 -0.3699,50.45301 c -0.4447,60.66517 -0.8209,58.9483 12.9143,58.9483 h 9.0045 l 0.2484,5.42486 c 0.6536,14.28201 1.0128,13.48799 -6.5523,14.47958 -3.8494,0.50483 -10.0097,0.35756 -13.6892,-0.32702 z"
       id="path16" />
  </g>
</svg>
