<?xml version="1.0" encoding="UTF-8" standalone="no"?>
<svg
   width="456"
   height="456"
   viewBox="0 0 456 456"
   version="1.1"
   xml:space="preserve"
   style="fill-rule:evenodd;clip-rule:evenodd;stroke-linejoin:round;stroke-miterlimit:2;"
   id="svg4"
   sodipodi:docname="appiconfg.svg"
   inkscape:version="1.3 (0e150ed6c4, 2023-07-21)"
   xmlns:inkscape="http://www.inkscape.org/namespaces/inkscape"
   xmlns:sodipodi="http://sodipodi.sourceforge.net/DTD/sodipodi-0.dtd"
   xmlns="http://www.w3.org/2000/svg"
   xmlns:svg="http://www.w3.org/2000/svg"><defs
   id="defs4" /><sodipodi:namedview
   id="namedview4"
   pagecolor="#505050"
   bordercolor="#eeeeee"
   borderopacity="1"
   inkscape:showpageshadow="0"
   inkscape:pageopacity="0"
   inkscape:pagecheckerboard="0"
   inkscape:deskcolor="#505050"
   inkscape:zoom="0.92575164"
   inkscape:cx="71.833521"
   inkscape:cy="285.71378"
   inkscape:window-width="1920"
   inkscape:window-height="1009"
   inkscape:window-x="1912"
   inkscape:window-y="-8"
   inkscape:window-maximized="1"
   inkscape:current-layer="svg4" />&#10;    &#10;    &#10;    &#10;    &#10;<path
   style="fill:#000000;stroke-width:1.12048"
   d="m 376.45038,368.95572 c -2.14377,-1.78959 -5.05948,-3.25376 -6.47918,-3.25376 -1.41979,0 -3.22634,-0.73616 -4.0146,-1.63585 -0.78839,-0.89953 -2.34266,-1.63561 -3.45404,-1.63561 -1.11149,0 -2.73182,-0.81191 -3.60096,-1.80457 -0.86902,-0.99242 -3.26394,-2.47108 -5.32193,-3.28603 -2.05803,-0.81449 -3.74184,-1.91219 -3.74184,-2.43865 0,-0.52653 -2.13356,-1.76614 -4.74125,-2.7541 -2.60764,-0.98818 -6.36388,-2.93999 -8.34716,-4.33711 -1.98331,-1.39713 -6.19648,-3.75018 -9.36267,-5.22875 -3.16616,-1.47871 -6.79287,-3.23143 -8.05935,-3.89517 -1.26646,-0.6636 -4.50463,-2.06609 -7.19586,-3.11667 -2.69125,-1.05058 -4.8932,-2.30633 -4.8932,-2.7907 0,-0.48443 -1.01042,-0.88065 -2.24545,-0.88065 -1.235,0 -2.65977,-0.67206 -3.16616,-1.49372 -0.50639,-0.8216 -3.25219,-2.59611 -6.10173,-3.94357 -2.84956,-1.34732 -5.95818,-3.06278 -6.90804,-3.81205 -0.94985,-0.74913 -3.0307,-1.65398 -4.62414,-2.01066 -1.59341,-0.35647 -5.70229,-2.63063 -9.13079,-5.05326 -3.4285,-2.42283 -7.14572,-4.40508 -8.26045,-4.40508 -1.11472,0 -2.30565,-0.42718 -2.64644,-0.94956 -0.34083,-0.52217 -2.05522,-1.22418 -3.80981,-1.55994 -1.75456,-0.33569 -4.74444,-2.00355 -6.64414,-3.70641 -1.8997,-1.70269 -5.69477,-4.52792 -8.43345,-6.27795 -2.73869,-1.75023 -5.63593,-4.06964 -6.43828,-5.15471 -0.80239,-1.08491 -3.22454,-2.53343 -5.38259,-3.21858 -2.15807,-0.68552 -5.31931,-2.64987 -7.02504,-4.36511 -4.05217,-4.07548 -8.79392,-4.08524 -15.11265,-0.0314 -2.64705,1.69818 -5.70405,3.39455 -6.79333,3.76974 -2.71365,0.93481 -3.73126,5.56361 -2.50089,11.37647 0.91802,4.33695 1.64343,5.17436 6.81306,7.86539 3.18211,1.65646 7.63191,3.5887 9.88846,4.294 2.25653,0.7053 5.85657,2.50796 8.00006,4.0057 2.14351,1.49774 5.87418,3.22741 8.2904,3.84369 2.41619,0.61621 6.98603,2.56829 10.15518,4.33804 3.16913,1.76982 6.03531,3.21762 6.36932,3.21762 0.33398,0 1.3836,0.7354 2.3325,1.63415 0.9489,0.89868 3.11383,1.95503 4.81093,2.34736 3.12688,0.7228 11.95761,4.23079 20.35573,8.08621 2.53294,1.16293 5.59838,2.11282 6.81208,2.11121 1.21369,0 1.95373,0.23655 1.64448,0.52948 -1.16426,1.10259 -36.5186,-1.68912 -41.94138,-3.31194 -3.11335,-0.93186 -8.25114,-2.11992 -11.41733,-2.64075 -3.16619,-0.52036 -9.12433,-1.75527 -13.24036,-2.74404 -4.11604,-0.98851 -9.39258,-2.05806 -11.7257,-2.37665 -2.33307,-0.3184 -5.13341,-1.51182 -6.22293,-2.65208 -1.08956,-1.14041 -2.95753,-2.07333 -4.15109,-2.07333 -2.227,0 -11.409,-4.02375 -12.44038,-5.4517 -0.31663,-0.43818 -1.84813,-1.17359 -3.40331,-1.63388 -1.55517,-0.46031 -4.71018,-2.6118 -7.01105,-4.78132 -2.30093,-2.16939 -5.2219,-4.6805 -6.49109,-5.57999 -4.03519,-2.86029 -9.57532,-11.12063 -9.57532,-14.27716 0,-4.79361 4.58029,-11.20749 16.40656,-22.97418 1.10815,-1.10256 2.01484,-2.25244 2.01484,-2.55518 0,-0.78595 10.86683,-10.5246 14.34771,-12.85821 3.7635,-2.52328 3.76139,-5.01909 -0.0248,-29.30051 -1.62099,-10.39536 -3.04575,-22.28363 -3.16619,-26.41849 -0.20666,-7.0965 -0.0458,-7.61592 2.87431,-9.26865 3.35421,-1.89862 11.29847,-10.55218 11.29847,-12.30718 0,-1.3703 6.81411,-8.33814 9.54203,-9.75732 2.33803,-1.21631 6.57669,-0.29271 6.57669,1.43302 0,0.63009 1.55431,2.82224 3.45403,4.87145 1.89971,2.04919 3.45399,4.69014 3.45399,5.86876 0,1.17862 0.43653,2.14291 0.97003,2.14291 0.53353,0 1.9466,1.71747 3.14017,3.81656 1.19359,2.09911 2.59685,3.81656 3.11838,3.81656 0.52156,0 1.70673,1.59471 2.6337,3.54394 0.92699,1.94914 2.13805,4.27997 2.69125,5.17953 7.3606,11.97007 13.24521,29.35495 14.46341,42.72917 0.42981,4.7188 1.58542,8.75707 3.27645,11.44968 3.81216,6.07002 19.21363,21.61372 31.13317,31.42073 8.57483,7.05496 9.06545,7.49849 16.28868,14.72374 3.79941,3.80049 9.56592,8.52154 12.81445,10.49118 3.62757,2.19969 6.18282,4.62454 6.62286,6.28496 0.39402,1.48701 1.63934,2.981 2.76731,3.32018 1.12799,0.33904 4.44598,2.94788 7.37331,5.79744 8.72169,8.49007 9.72745,9.39915 14.1739,12.81403 2.34274,1.79919 7.81452,6.46085 12.15954,10.35917 4.345,3.89839 8.72342,7.82396 9.73,8.72365 1.00646,0.89961 3.23935,3.10759 4.96195,4.90682 1.72259,1.79922 4.67507,4.34828 6.56112,5.6643 2.94265,2.05351 3.10248,2.39903 1.12654,2.43616 -1.26653,0.0239 -4.05681,-1.42118 -6.20057,-3.21077 z"
   id="path9" /><path
   style="fill:#000000;stroke-width:1.12048"
   d="m 129.93247,264.74384 c -5.705,-1.91574 -16.15849,-4.71013 -19.84303,-5.30431 -2.36497,-0.38131 -5.97762,-2.1447 -8.02813,-3.91846 -2.05046,-1.77376 -4.56004,-3.22509 -5.576828,-3.22509 -4.441656,0 -19.879515,-12.84889 -24.565347,-20.44568 -1.426056,-2.31195 2.335567,-1.54832 5.827002,1.18292 6.806949,5.32481 22.991813,11.64558 29.792833,11.63508 1.93134,0 4.00375,0.42968 4.60535,0.96137 1.49351,1.31998 14.95722,3.39506 22.02816,3.39506 5.98909,0 13.03002,-1.75665 13.03002,-3.25075 0,-0.47128 0.98673,-1.10102 2.19272,-1.39972 3.78423,-0.93726 5.22489,-11.0191 3.77635,-26.42705 -1.43187,-15.23071 -0.98857,-18.54603 3.02541,-22.62665 5.0206,-5.10393 11.15305,-4.07838 19.97965,3.34143 7.14648,6.00746 10.91505,22.89266 7.86859,35.25533 -2.50243,10.15498 -10.77298,24.92141 -13.95827,24.92141 -0.56116,0 -3.73783,1.3013 -7.0592,2.89187 -5.23674,2.50773 -7.7211,2.93843 -18.70359,3.24247 -6.96557,0.19292 -13.44184,0.0894 -14.39169,-0.22923 z"
   id="path10" /><path
   style="fill:#000000;stroke-width:1.12048"
   d="m 156.41322,172.69768 c -2.21633,-1.13983 -5.07045,-2.61318 -6.34246,-3.2741 -3.34211,-1.73656 -6.72787,-10.1845 -6.03551,-15.05939 1.11851,-7.87572 4.37739,-12.43107 11.22664,-15.69295 8.38694,-3.99417 14.72425,-4.01424 23.14125,-0.0733 6.07889,2.84623 6.55593,3.3658 8.35757,9.10302 1.86221,5.93003 1.59706,12.36698 -0.56145,13.63045 -0.55142,0.32279 -1.00263,1.77809 -1.00263,3.23399 0,1.909 -1.04335,3.12358 -3.74183,4.35588 -2.05802,0.93984 -5.55519,2.66309 -7.77152,3.82946 -5.05576,2.66072 -12.035,2.63929 -17.27006,-0.053 z"
   id="path11" /><path
   style="fill:#000000;stroke-width:1.12048"
   d="m 204.21272,142.19083 c -0.38086,-0.58369 -2.45771,-1.85458 -4.61516,-2.82423 -5.36935,-2.41314 -8.00401,-9.80108 -7.21585,-20.23412 0.31045,-4.10923 1.09244,-8.09184 1.73775,-8.85025 0.64533,-0.75845 1.5588,-3.08343 2.02993,-5.16665 0.47114,-2.0832 2.0646,-5.599982 3.54101,-7.815054 1.47643,-2.21513 3.05245,-5.416276 3.50227,-7.113674 0.70018,-2.642184 5.37775,-7.707393 10.96914,-11.878128 0.84988,-0.633977 2.88151,-2.657442 4.51474,-4.496662 2.22376,-2.504208 4.8444,-3.789324 10.4356,-5.117357 9.54317,-2.266776 12.8738,-2.22637 26.75483,0.324354 10.47036,1.924034 11.75764,2.444846 16.16229,6.539025 2.63222,2.446691 5.32039,4.448499 5.97378,4.448499 0.65338,0 2.2673,1.104074 3.5865,2.453476 3.98473,4.07603 8.0671,7.360484 9.14867,7.360484 1.82537,0 8.80013,8.543946 12.4869,15.296247 2.19834,4.02629 0.98046,4.13738 -3.37966,0.30827 -3.28972,-2.88905 -10.6984,-6.906192 -24.26888,-13.159095 -8.33107,-3.838722 -22.21506,-6.522819 -29.49628,-5.702274 -11.46438,1.291959 -18.67479,9.201919 -20.52829,22.519949 -0.65396,4.69872 -1.99555,11.73266 -2.9813,15.63098 -0.98577,3.89832 -2.07012,8.33811 -2.40968,9.86625 -1.08124,4.86611 -13.78363,10.92722 -15.94831,7.60996 z"
   id="path12" /></svg>
